<mxfile host="65bd71144e">
    <diagram id="FCY7vqEvU6a_ZlxAxX73" name="Page-1">
        <mxGraphModel dx="768" dy="1543" grid="1" gridSize="10" guides="1" tooltips="1" connect="1" arrows="1" fold="1" page="1" pageScale="1" pageWidth="850" pageHeight="1100" math="0" shadow="0">
            <root>
                <mxCell id="0"/>
                <mxCell id="1" parent="0"/>
                <mxCell id="2" value="" style="sketch=0;pointerEvents=1;shadow=0;dashed=0;html=1;strokeColor=none;fillColor=#434445;aspect=fixed;labelPosition=center;verticalLabelPosition=bottom;verticalAlign=top;align=center;outlineConnect=0;shape=mxgraph.vvd.laptop;" vertex="1" parent="1">
                    <mxGeometry x="20" y="160" width="152.78" height="110" as="geometry"/>
                </mxCell>
                <mxCell id="3" value="" style="endArrow=classic;html=1;" edge="1" parent="1">
                    <mxGeometry width="50" height="50" relative="1" as="geometry">
                        <mxPoint x="100" y="59.5" as="sourcePoint"/>
                        <mxPoint x="380" y="60" as="targetPoint"/>
                    </mxGeometry>
                </mxCell>
                <mxCell id="4" value="" style="endArrow=none;html=1;" edge="1" parent="1">
                    <mxGeometry width="50" height="50" relative="1" as="geometry">
                        <mxPoint x="95.89" y="160" as="sourcePoint"/>
                        <mxPoint x="100" y="60" as="targetPoint"/>
                    </mxGeometry>
                </mxCell>
                <mxCell id="5" value="&lt;font style=&quot;font-size: 14px;&quot;&gt;action&lt;/font&gt;" style="rounded=1;whiteSpace=wrap;html=1;" vertex="1" parent="1">
                    <mxGeometry x="420" y="20" width="120" height="60" as="geometry"/>
                </mxCell>
                <mxCell id="6" value="" style="endArrow=classic;html=1;" edge="1" parent="1">
                    <mxGeometry width="50" height="50" relative="1" as="geometry">
                        <mxPoint x="490.5" y="100" as="sourcePoint"/>
                        <mxPoint x="490" y="160" as="targetPoint"/>
                        <Array as="points"/>
                    </mxGeometry>
                </mxCell>
                <mxCell id="7" value="&lt;font style=&quot;font-size: 14px;&quot;&gt;reducer&lt;/font&gt;" style="rounded=1;whiteSpace=wrap;html=1;" vertex="1" parent="1">
                    <mxGeometry x="420" y="170" width="120" height="60" as="geometry"/>
                </mxCell>
                <mxCell id="9" value="&lt;font style=&quot;font-size: 14px;&quot;&gt;store&lt;/font&gt;" style="rounded=1;whiteSpace=wrap;html=1;" vertex="1" parent="1">
                    <mxGeometry x="430" y="280" width="120" height="60" as="geometry"/>
                </mxCell>
                <mxCell id="10" value="" style="endArrow=none;html=1;" edge="1" parent="1">
                    <mxGeometry width="50" height="50" relative="1" as="geometry">
                        <mxPoint x="210" y="400" as="sourcePoint"/>
                        <mxPoint x="455" y="400" as="targetPoint"/>
                    </mxGeometry>
                </mxCell>
                <mxCell id="11" value="" style="endArrow=classic;html=1;" edge="1" parent="1">
                    <mxGeometry width="50" height="50" relative="1" as="geometry">
                        <mxPoint x="490" y="220" as="sourcePoint"/>
                        <mxPoint x="489.5" y="280" as="targetPoint"/>
                        <Array as="points"/>
                    </mxGeometry>
                </mxCell>
                <mxCell id="12" value="" style="endArrow=classic;html=1;" edge="1" parent="1">
                    <mxGeometry width="50" height="50" relative="1" as="geometry">
                        <mxPoint x="470.5" y="340" as="sourcePoint"/>
                        <mxPoint x="470" y="400" as="targetPoint"/>
                        <Array as="points"/>
                    </mxGeometry>
                </mxCell>
                <mxCell id="13" value="" style="curved=1;endArrow=classic;html=1;" edge="1" parent="1">
                    <mxGeometry width="50" height="50" relative="1" as="geometry">
                        <mxPoint x="210" y="400" as="sourcePoint"/>
                        <mxPoint x="100" y="280" as="targetPoint"/>
                        <Array as="points">
                            <mxPoint x="210" y="410"/>
                            <mxPoint x="160" y="360"/>
                        </Array>
                    </mxGeometry>
                </mxCell>
                <mxCell id="14" value="dispatch" style="text;html=1;align=center;verticalAlign=middle;resizable=0;points=[];autosize=1;strokeColor=none;fillColor=none;" vertex="1" parent="1">
                    <mxGeometry x="190" y="70" width="70" height="30" as="geometry"/>
                </mxCell>
                <mxCell id="15" value="&lt;font style=&quot;font-size: 14px;&quot;&gt;View/ UI&lt;/font&gt;" style="text;html=1;align=center;verticalAlign=middle;whiteSpace=wrap;rounded=0;" vertex="1" parent="1">
                    <mxGeometry x="66.38999999999999" y="190" width="60" height="30" as="geometry"/>
                </mxCell>
                <mxCell id="19" value="" style="edgeStyle=entityRelationEdgeStyle;startArrow=none;endArrow=none;segment=10;curved=1;sourcePerimeterSpacing=0;targetPerimeterSpacing=0;entryX=0;entryY=0.5;entryDx=0;entryDy=0;" edge="1" parent="1">
                    <mxGeometry relative="1" as="geometry">
                        <mxPoint x="540" y="192.5" as="sourcePoint"/>
                        <mxPoint x="830" y="195" as="targetPoint"/>
                    </mxGeometry>
                </mxCell>
                <mxCell id="22" value="Reducer impelmintion&amp;nbsp;" style="text;html=1;align=center;verticalAlign=middle;resizable=0;points=[];autosize=1;strokeColor=none;fillColor=none;" vertex="1" parent="1">
                    <mxGeometry x="590" y="168" width="140" height="30" as="geometry"/>
                </mxCell>
                <mxCell id="24" value="" style="curved=1;endArrow=classic;html=1;" edge="1" parent="1" target="34">
                    <mxGeometry width="50" height="50" relative="1" as="geometry">
                        <mxPoint x="540" y="40" as="sourcePoint"/>
                        <mxPoint x="590" y="-10" as="targetPoint"/>
                        <Array as="points">
                            <mxPoint x="590" y="40"/>
                            <mxPoint x="540" y="-10"/>
                        </Array>
                    </mxGeometry>
                </mxCell>
                <mxCell id="26" value="&lt;div style=&quot;color: rgb(218, 218, 218); background-color: rgb(30, 30, 30); font-family: Consolas, &amp;quot;Courier New&amp;quot;, monospace; font-size: 14px; line-height: 19px; white-space-collapse: preserve;&quot;&gt;&lt;br&gt;&lt;/div&gt;" style="text;html=1;align=center;verticalAlign=middle;resizable=0;points=[];autosize=1;strokeColor=none;fillColor=none;" vertex="1" parent="1">
                    <mxGeometry x="770" y="-132" width="20" height="30" as="geometry"/>
                </mxCell>
                <mxCell id="34" value="&lt;div style=&quot;color: rgb(218, 218, 218); background-color: rgb(30, 30, 30); font-family: Consolas, &amp;quot;Courier New&amp;quot;, monospace; font-size: 14px; line-height: 19px; white-space: pre;&quot;&gt;&lt;div&gt;&lt;span style=&quot;color: #569cd6;&quot;&gt;const&lt;/span&gt;&lt;span style=&quot;color: #dadada;&quot;&gt; &lt;/span&gt;&lt;span style=&quot;color: #c8c8c8;&quot;&gt;action&lt;/span&gt;&lt;span style=&quot;color: #dadada;&quot;&gt; &lt;/span&gt;&lt;span style=&quot;color: #b4b4b4;&quot;&gt;=&lt;/span&gt;&lt;span style=&quot;color: #dadada;&quot;&gt; &lt;/span&gt;&lt;span style=&quot;color: #b4b4b4;&quot;&gt;{&lt;/span&gt;&lt;/div&gt;&lt;div&gt;&lt;span style=&quot;color: #dadada;&quot;&gt;&amp;nbsp; &amp;nbsp; &lt;/span&gt;&lt;span style=&quot;color: #dadada;&quot;&gt;type&lt;/span&gt;&lt;span style=&quot;color: #9cdcfe;&quot;&gt; &lt;/span&gt;&lt;span style=&quot;color: #b4b4b4;&quot;&gt;:&lt;/span&gt;&lt;span style=&quot;color: #dadada;&quot;&gt; &lt;/span&gt;&lt;span style=&quot;color: #e8c9bb;&quot;&gt;&#39;&lt;/span&gt;&lt;span style=&quot;color: #ce9178;&quot;&gt;Increment&lt;/span&gt;&lt;span style=&quot;color: #e8c9bb;&quot;&gt;&#39;&lt;/span&gt;&lt;/div&gt;&lt;div&gt;&lt;span style=&quot;color: #b4b4b4;&quot;&gt;}&lt;/span&gt;&lt;/div&gt;&lt;div&gt;&lt;span style=&quot;color: #569cd6;&quot;&gt;const&lt;/span&gt;&lt;span style=&quot;color: #dadada;&quot;&gt; &lt;/span&gt;&lt;span style=&quot;color: #c8c8c8;&quot;&gt;action2&lt;/span&gt;&lt;span style=&quot;color: #dadada;&quot;&gt; &lt;/span&gt;&lt;span style=&quot;color: #b4b4b4;&quot;&gt;=&lt;/span&gt;&lt;span style=&quot;color: #dadada;&quot;&gt; &lt;/span&gt;&lt;span style=&quot;color: #b4b4b4;&quot;&gt;{&lt;/span&gt;&lt;/div&gt;&lt;div&gt;&lt;span style=&quot;color: #dadada;&quot;&gt;&amp;nbsp; &amp;nbsp; &lt;/span&gt;&lt;span style=&quot;color: #dadada;&quot;&gt;type&lt;/span&gt;&lt;span style=&quot;color: #9cdcfe;&quot;&gt; &lt;/span&gt;&lt;span style=&quot;color: #b4b4b4;&quot;&gt;:&lt;/span&gt;&lt;span style=&quot;color: #dadada;&quot;&gt; &lt;/span&gt;&lt;span style=&quot;color: #e8c9bb;&quot;&gt;&#39;&lt;/span&gt;&lt;span style=&quot;color: #ce9178;&quot;&gt;Decrement&lt;/span&gt;&lt;span style=&quot;color: #e8c9bb;&quot;&gt;&#39;&lt;/span&gt;&lt;/div&gt;&lt;div&gt;&lt;span style=&quot;color: #b4b4b4;&quot;&gt;}&lt;/span&gt;&lt;/div&gt;&lt;/div&gt;" style="text;strokeColor=none;align=center;fillColor=none;html=1;verticalAlign=middle;whiteSpace=wrap;rounded=0;" vertex="1" parent="1">
                    <mxGeometry x="720" y="-170" width="330" height="150" as="geometry"/>
                </mxCell>
                <mxCell id="37" value="&lt;div style=&quot;color: #dadada;background-color: #1e1e1e;font-family: Consolas, &#39;Courier New&#39;, monospace;font-weight: normal;font-size: 14px;line-height: 19px;white-space: pre;&quot;&gt;&lt;div&gt;&lt;span style=&quot;color: #569cd6;&quot;&gt;const&lt;/span&gt;&lt;span style=&quot;color: #dadada;&quot;&gt; &lt;/span&gt;&lt;span style=&quot;color: #c8c8c8;&quot;&gt;store&lt;/span&gt;&lt;span style=&quot;color: #dadada;&quot;&gt; &lt;/span&gt;&lt;span style=&quot;color: #b4b4b4;&quot;&gt;=&lt;/span&gt;&lt;span style=&quot;color: #dadada;&quot;&gt; &lt;/span&gt;&lt;span style=&quot;color: #9cdcfe;&quot;&gt;Redux&lt;/span&gt;&lt;span style=&quot;color: #b4b4b4;&quot;&gt;.&lt;/span&gt;&lt;span style=&quot;color: #dcdcaa;&quot;&gt;createStore&lt;/span&gt;&lt;span style=&quot;color: #dadada;&quot;&gt;(&lt;/span&gt;&lt;span style=&quot;color: #dcdcaa;&quot;&gt;reducer&lt;/span&gt;&lt;span style=&quot;color: #dadada;&quot;&gt;)&lt;/span&gt;&lt;span style=&quot;color: #b4b4b4;&quot;&gt;;&lt;/span&gt;&lt;/div&gt;&lt;div&gt;&lt;span style=&quot;color: #9cdcfe;&quot;&gt;console&lt;/span&gt;&lt;span style=&quot;color: #b4b4b4;&quot;&gt;.&lt;/span&gt;&lt;span style=&quot;color: #dcdcaa;&quot;&gt;log&lt;/span&gt;&lt;span style=&quot;color: #dadada;&quot;&gt;(&lt;/span&gt;&lt;span style=&quot;color: #c8c8c8;&quot;&gt;store&lt;/span&gt;&lt;span style=&quot;color: #dadada;&quot;&gt;)&lt;/span&gt;&lt;span style=&quot;color: #b4b4b4;&quot;&gt;;&lt;/span&gt;&lt;/div&gt;&lt;/div&gt;" style="text;whiteSpace=wrap;html=1;" vertex="1" parent="1">
                    <mxGeometry x="690" y="400" width="350" height="60" as="geometry"/>
                </mxCell>
                <mxCell id="38" value="" style="endArrow=classic;html=1;exitX=1;exitY=0.75;exitDx=0;exitDy=0;entryX=0;entryY=0;entryDx=0;entryDy=0;" edge="1" parent="1" source="9" target="37">
                    <mxGeometry width="50" height="50" relative="1" as="geometry">
                        <mxPoint x="640" y="410" as="sourcePoint"/>
                        <mxPoint x="690" y="360" as="targetPoint"/>
                    </mxGeometry>
                </mxCell>
                <mxCell id="40" value="&lt;div style=&quot;color: #dadada;background-color: #1e1e1e;font-family: Consolas, &#39;Courier New&#39;, monospace;font-weight: normal;font-size: 14px;line-height: 19px;white-space: pre;&quot;&gt;&lt;div&gt;&lt;span style=&quot;color: #569cd6;&quot;&gt;const&lt;/span&gt;&lt;span style=&quot;color: #dadada;&quot;&gt; &lt;/span&gt;&lt;span style=&quot;color: #c8c8c8;&quot;&gt;action&lt;/span&gt;&lt;span style=&quot;color: #dadada;&quot;&gt; &lt;/span&gt;&lt;span style=&quot;color: #b4b4b4;&quot;&gt;=&lt;/span&gt;&lt;span style=&quot;color: #dadada;&quot;&gt; &lt;/span&gt;&lt;span style=&quot;color: #b4b4b4;&quot;&gt;{&lt;/span&gt;&lt;/div&gt;&lt;div&gt;&lt;span style=&quot;color: #dadada;&quot;&gt;&amp;nbsp; &amp;nbsp; &lt;/span&gt;&lt;span style=&quot;color: #dadada;&quot;&gt;type&lt;/span&gt;&lt;span style=&quot;color: #9cdcfe;&quot;&gt; &lt;/span&gt;&lt;span style=&quot;color: #b4b4b4;&quot;&gt;:&lt;/span&gt;&lt;span style=&quot;color: #dadada;&quot;&gt; &lt;/span&gt;&lt;span style=&quot;color: #e8c9bb;&quot;&gt;&#39;&lt;/span&gt;&lt;span style=&quot;color: #ce9178;&quot;&gt;Increment&lt;/span&gt;&lt;span style=&quot;color: #e8c9bb;&quot;&gt;&#39;&lt;/span&gt;&lt;/div&gt;&lt;div&gt;&lt;span style=&quot;color: #b4b4b4;&quot;&gt;}&lt;/span&gt;&lt;/div&gt;&lt;div&gt;&lt;span style=&quot;color: #569cd6;&quot;&gt;const&lt;/span&gt;&lt;span style=&quot;color: #dadada;&quot;&gt; &lt;/span&gt;&lt;span style=&quot;color: #c8c8c8;&quot;&gt;action2&lt;/span&gt;&lt;span style=&quot;color: #dadada;&quot;&gt; &lt;/span&gt;&lt;span style=&quot;color: #b4b4b4;&quot;&gt;=&lt;/span&gt;&lt;span style=&quot;color: #dadada;&quot;&gt; &lt;/span&gt;&lt;span style=&quot;color: #b4b4b4;&quot;&gt;{&lt;/span&gt;&lt;/div&gt;&lt;div&gt;&lt;span style=&quot;color: #dadada;&quot;&gt;&amp;nbsp; &amp;nbsp; &lt;/span&gt;&lt;span style=&quot;color: #dadada;&quot;&gt;type&lt;/span&gt;&lt;span style=&quot;color: #9cdcfe;&quot;&gt; &lt;/span&gt;&lt;span style=&quot;color: #b4b4b4;&quot;&gt;:&lt;/span&gt;&lt;span style=&quot;color: #dadada;&quot;&gt; &lt;/span&gt;&lt;span style=&quot;color: #e8c9bb;&quot;&gt;&#39;&lt;/span&gt;&lt;span style=&quot;color: #ce9178;&quot;&gt;Decrement&lt;/span&gt;&lt;span style=&quot;color: #e8c9bb;&quot;&gt;&#39;&lt;/span&gt;&lt;/div&gt;&lt;div&gt;&lt;span style=&quot;color: #b4b4b4;&quot;&gt;}&lt;/span&gt;&lt;/div&gt;&lt;/div&gt;" style="text;whiteSpace=wrap;html=1;" vertex="1" parent="1">
                    <mxGeometry x="850" y="120" width="300" height="140" as="geometry"/>
                </mxCell>
            </root>
        </mxGraphModel>
    </diagram>
</mxfile>